HIERARCHY
ROOT Hips
{
   OFFSET 0.00000 0.00000 0.00000
   CHANNELS 6 Xposition Yposition Zposition Zrotation Xrotation Yrotation
   JOINT Spine
   {
      OFFSET 0.000000 14.268601 0.000000
      CHANNELS 3 Zrotation Xrotation Yrotation
      JOINT Spine1
      {
         OFFSET -0.000000 30.788881 0.153192
         CHANNELS 3 Zrotation Xrotation Yrotation
         JOINT HEad
         {
            OFFSET 0.000000 10.480993 0.013608
            CHANNELS 3 Zrotation Xrotation Yrotation
            End Site
            {
               OFFSET -0.348000 15.329041 3.016740
            }
         }
         JOINT LeftShoulder1
         {
            OFFSET 10.788001 -0.434700 -0.264000
            CHANNELS 3 Zrotation Xrotation Yrotation
            JOINT LeftArm
            {
               OFFSET 12.339240 -0.004056 0.386544
               CHANNELS 3 Zrotation Xrotation Yrotation
               JOINT LeftForeArm
               {
                  OFFSET 39.320280 0.118968 -1.709208
                  CHANNELS 3 Zrotation Xrotation Yrotation
                  JOINT LeftHand
                  {
                     OFFSET 33.077163 0.102432 1.226592
                     CHANNELS 3 Zrotation Xrotation Yrotation
                     End Site
                     {
                        OFFSET 20.093162 -0.720000 1.803492
                     }
                  }
               }
            }
         }
         JOINT RightShoulder
         {
            OFFSET -10.788001 -0.434700 -0.264000
            CHANNELS 3 Zrotation Xrotation Yrotation
            JOINT RightArm
            {
               OFFSET -12.339240 -0.004056 0.386544
               CHANNELS 3 Zrotation Xrotation Yrotation
               JOINT RightForeArm
               {
                  OFFSET -39.476518 0.118968 -1.709208
                  CHANNELS 3 Zrotation Xrotation Yrotation
                  JOINT RightHand
                  {
                     OFFSET -32.990522 0.102432 1.226592
                     CHANNELS 3 Zrotation Xrotation Yrotation
                     End Site
                     {
                        OFFSET -19.957442 -0.720000 1.803492
                     }
                  }
               }
            }
         }
      }
   }
   JOINT LeftUpLeg
   {
      OFFSET 10.734961 -10.400485 0.121980
      CHANNELS 3 Zrotation Xrotation Yrotation
      JOINT LeftLeg
      {
         OFFSET 0.000000 -53.307237 1.647240
         CHANNELS 3 Zrotation Xrotation Yrotation
         JOINT LeftFoot
         {
            OFFSET -0.304260 -50.510883 -1.752708
            CHANNELS 3 Zrotation Xrotation Yrotation
            JOINT LeftToes
            {
               OFFSET -0.048000 -5.298108 10.198920
               CHANNELS 3 Zrotation Xrotation Yrotation
               End Site
               {
                  OFFSET 0.096000 -0.056940 11.735748
               }
            }
         }
      }
   }
   JOINT RightUpLeg
   {
      OFFSET -10.734961 -10.400485 0.121980
      CHANNELS 3 Zrotation Xrotation Yrotation
      JOINT RightLeg
      {
         OFFSET 0.000000 -53.307237 1.647240
         CHANNELS 3 Zrotation Xrotation Yrotation
         JOINT RightFoot
         {
            OFFSET 0.304260 -50.510883 -1.752708
            CHANNELS 3 Zrotation Xrotation Yrotation
            JOINT RightToes
            {
               OFFSET 0.048000 -5.298108 10.198920
               CHANNELS 3 Zrotation Xrotation Yrotation
               End Site
               {
                  OFFSET -0.096000 -0.164940 11.735748
               }
            }
         }
      }
   }
}
MOTION
Frames: 18
Frame Time: 0.016670
45.600867 84.141425 -119.690817 -10.611488 15.226969 -52.838555 31.530475 10.855829 111.622544 55.743465 13.454069 -99.420336 -23.961446 50.863941 -2.411332 -18.191174 111.301416 -14.865984 6.904686 83.373975 55.263074 53.499745 -48.426147 97.143663 -115.552649 -121.280391 -124.292244 -10.460618 434.188705 28.343648 119.545441 20.280549 530.319984 5.895903 104.566426 51.157376 5.736884 6.195574 43.858181 57.457880 -24.242643 73.211104 6.491535 38.757335 126.480500 -73.074459 3.841676 0.560115 -51.499954 55.355558 -56.972117 19.040855 -39.851989 113.451901 31.532023 9.364218 123.476870 -7.743950 25.436258 -46.320133 -15.304362 27.117866 -76.218122
46.018409 80.732735 -120.219267 -10.527918 16.785497 -52.106437 28.508663 11.364854 116.116617 52.137624 10.007153 -98.967576 -23.762927 46.997985 -2.013314 -21.139651 106.544695 -18.637397 5.932865 84.201882 56.615926 56.857626 -47.979412 99.151145 -107.948333 -126.492166 -129.805382 -9.007361 435.323008 26.856982 123.418964 22.327009 526.641135 -2.797937 100.948543 66.775686 2.905741 1.903806 48.653350 62.314787 -29.219040 70.431067 8.967772 40.381472 127.970602 -70.564795 1.172388 2.071043 -53.492057 37.437366 -51.529724 23.891862 -42.907416 109.759856 31.835256 15.072505 134.830366 -7.847542 20.144214 -43.472791 -21.081020 19.462102 -74.274243
46.559047 76.364330 -121.132467 -10.395796 17.182371 -47.520652 22.932213 13.309290 119.879177 48.258483 6.211830 -100.221319 -23.904849 39.550869 -1.377315 -22.293995 101.955197 -21.240355 5.639161 85.767293 56.666378 61.424444 -44.874425 101.406022 -110.034785 -124.022780 -134.893586 -8.260567 436.183831 29.090728 126.229546 28.073693 524.073257 -8.180140 104.761981 73.608628 1.129114 3.983082 50.449854 64.842496 -35.332664 69.353973 9.984598 39.584013 129.969347 -68.470215 -0.370771 7.417096 -62.764364 41.764250 -54.851152 27.087195 -47.327426 102.749179 31.804571 20.312679 150.963518 -7.571327 13.062062 -37.692095 -27.811159 13.121266 -70.184777
47.040962 71.681818 -122.234057 -7.542197 18.201831 -45.456828 9.698525 18.804820 126.025951 43.026975 1.084307 -104.227765 -24.026644 29.894222 -0.953759 -21.088665 93.515610 -23.213064 7.053930 84.257248 56.444676 66.035382 -42.215224 104.365413 -103.445278 -128.486937 -141.056192 -4.888392 434.881341 31.377107 128.635808 33.670920 521.460792 -8.660368 109.822557 79.732206 0.540237 3.179792 53.024678 67.863141 -42.328923 68.008972 13.003737 39.544620 127.853683 -65.917787 -4.558846 11.736685 -69.552752 34.461118 -53.494516 33.689164 -49.978820 93.804227 22.890283 32.921997 173.474087 -6.828589 6.711598 -31.665365 -33.646922 9.388371 -64.757946
47.340526 67.272195 -123.356989 2.603771 16.168215 -43.283281 -4.425938 25.343400 129.756314 43.055009 -1.282123 -109.944196 -22.701389 22.453434 -1.785815 -19.185779 85.085292 -23.992153 9.749658 81.673715 55.528325 70.681174 -38.964737 106.611200 -101.892653 -128.138843 -146.751368 1.361639 429.765256 32.235853 130.124147 37.635322 519.935255 -3.403877 115.812264 88.395489 -0.841440 5.117405 51.671238 64.593359 -51.598927 70.874544 15.612991 41.953078 120.735970 -62.598301 -8.688794 14.943807 -75.348195 32.185955 -55.084916 43.020442 -52.064968 88.446380 -19.007146 53.127206 207.223227 -3.648484 6.547462 -26.504906 -37.279196 9.516874 -58.205281
47.546653 62.846149 -124.601439 -4.141897 14.094096 -36.814392 -12.199114 41.148495 133.989242 44.532273 -2.621015 -117.624955 -21.068767 17.989646 -3.207770 -15.780653 78.777039 -21.679796 12.435891 78.333513 50.554045 72.720874 -36.698794 110.035495 -99.626662 -131.099607 -147.413801 6.580678 418.733845 28.809567 134.098361 33.326364 512.174029 -4.798523 124.827171 83.775009 -5.681175 6.302855 51.129703 64.845946 -53.846428 68.502269 23.943291 42.943609 106.957019 -59.967128 -12.084095 15.578605 -80.630410 27.933005 -54.914373 35.979896 -67.333275 122.288226 -116.519216 147.574146 251.604935 -1.550775 1.654410 -16.899742 -43.952851 8.161923 -51.895832
47.695574 58.780455 -126.064547 -8.907248 13.534871 -34.004223 -20.772950 49.397451 144.992512 38.260643 -6.408515 -120.171660 -19.272697 15.954332 -4.955682 -10.924379 70.387101 -22.609856 16.609943 84.114381 43.893599 72.252145 -35.568022 111.248653 -100.802630 -131.538652 -146.256371 15.789447 401.854043 27.855958 135.431354 31.001330 501.512541 -6.696366 130.856398 77.870618 -11.377044 5.868665 51.364576 66.289424 -54.957806 68.727324 33.518149 39.032431 89.816387 -59.880385 -13.194408 15.234127 -84.809229 25.104340 -53.954830 34.549026 -63.701657 154.673991 -126.836804 196.608675 271.975974 -0.773668 -9.771891 -11.305792 -52.126088 7.408453 -42.918617
47.794136 54.721264 -127.291067 -8.291055 11.635302 -29.052285 -34.676191 54.755683 157.421148 33.633812 -9.971447 -120.873216 -15.938135 15.239474 -7.195104 -6.626939 68.465748 -24.242276 21.740620 85.793617 40.959593 73.894635 -31.722346 116.257032 -102.018991 -130.381864 -142.328343 25.718288 381.041555 24.209961 139.131869 20.894162 492.414292 -4.110757 134.472997 77.148715 -1.645717 -6.835991 56.187742 65.039206 -58.266787 71.643049 43.276618 40.961416 69.794507 -60.708538 -11.467468 10.669627 -87.405460 22.955016 -54.679107 34.187675 -63.705912 179.362653 -125.101922 218.908601 271.158674 1.442157 -17.024651 -13.718250 -59.277948 11.043030 -33.525785
48.050942 50.404996 -128.116262 3.044286 10.723570 -33.354833 -47.967182 40.321363 170.984306 27.100215 -18.631062 -122.300097 -13.422012 14.058733 -9.548575 -11.853803 58.669583 -28.404899 31.201482 94.321272 27.597198 73.931518 -35.708345 107.816380 -101.548855 -131.860545 -144.996733 32.954949 356.838370 28.043269 136.718148 -0.958117 474.349152 -7.729346 128.016733 68.239061 -13.543769 0.238028 41.416191 70.425261 -62.848307 78.832479 64.447548 59.766484 46.951738 -60.416186 -3.502449 2.169935 -87.011330 22.416449 -55.407365 32.395263 -73.462468 194.535645 -120.837630 231.681109 261.223973 4.200890 -18.743069 -16.908359 -94.218355 18.717865 -51.546977
48.443832 46.495289 -128.738525 14.104375 12.421059 -24.723564 -52.678438 38.554591 177.007016 32.724949 -22.856303 -126.576369 -9.464026 10.829400 -12.481243 -1.695224 47.779294 -31.978331 36.386935 91.473418 26.269772 77.549456 -35.409879 109.437170 -98.948199 -134.901413 -147.051172 44.670673 349.263444 32.075422 149.525859 -1.215627 474.171458 -4.082957 135.148584 72.655331 -9.290989 -4.753920 43.782571 96.526849 -54.676679 100.181383 141.049499 126.380315 27.238455 -59.215445 0.670573 -6.026698 -87.438203 21.762842 -56.966547 18.523243 -83.623577 211.857141 -127.515588 238.197930 256.489832 5.163319 -18.635538 -17.369743 -82.519238 18.262819 -32.064323
48.637003 43.521523 -128.968618 25.407103 15.230743 -18.782984 -59.254548 37.887947 179.701225 32.040837 -28.049652 -132.425060 -7.718488 5.443140 -15.085460 3.427530 41.653461 -30.983394 38.360733 89.772059 21.280061 76.479390 -36.090491 103.575898 -99.212794 -131.923465 -148.410749 48.937195 347.330774 32.656077 154.245083 -2.548602 475.358599 -4.138321 142.733742 73.308250 -14.956407 -0.188845 39.711352 90.322114 -66.015527 117.478024 175.929991 136.948380 15.661620 -58.364554 -2.474116 -7.525342 -89.960565 18.355333 -56.631793 -2.887882 -83.467166 223.212549 -129.084852 245.633902 252.081682 4.736443 -16.820886 -18.009544 -90.436697 16.577154 -33.893926
49.006829 41.444806 -128.610418 32.043272 9.355448 -14.862152 -70.781401 38.444300 182.318362 27.666241 -30.009044 -134.071491 -9.314157 -3.320876 -17.281244 7.408962 35.314557 -31.331130 37.129786 87.858513 14.273658 73.029086 -32.697010 99.917929 -96.947234 -127.899609 -150.878168 46.904186 336.877197 39.734315 163.241767 -13.414229 472.807769 -6.301185 153.386624 74.077664 -4.462444 -5.794523 47.605343 68.019723 -69.914896 125.191234 205.877338 142.058290 0.684251 -56.833885 -3.532483 -6.680077 -92.788557 12.587327 -55.616116 -25.929942 -76.635767 220.781412 -129.026959 252.628343 249.226827 3.833267 -16.011335 -17.240917 -86.866995 9.822355 -27.887792
49.495568 39.919030 -127.826975 38.798825 -0.053818 -6.357052 -75.594874 39.387645 182.522476 26.924669 -28.356989 -136.814700 -14.137435 -14.305082 -18.975700 7.441918 34.628369 -32.827966 35.151193 87.430362 14.679210 72.439217 -33.770976 95.526609 -92.277345 -115.912463 -154.000658 58.800484 337.604448 48.926680 169.968479 -14.496346 477.383341 -6.025283 166.123233 68.073299 -17.719558 -3.679978 32.137307 37.666909 -66.562666 125.027282 225.574606 149.301515 -12.729611 -58.512912 0.852111 -5.236184 -94.311047 7.787533 -50.872308 -48.936915 -58.880896 212.297798 -132.064248 256.151382 247.770576 3.417826 -14.318144 -15.611034 -86.405950 -1.253875 -33.361820
50.366859 38.877828 -126.683062 44.899061 -5.924603 5.131591 -82.871976 47.007452 185.771037 33.316891 -27.213314 -133.050637 -17.108914 -20.433819 -21.097575 8.183895 31.497950 -33.281651 36.543575 86.526646 13.949902 70.861273 -30.489787 86.229185 -103.853088 -119.817009 -142.319586 70.893388 332.977077 58.447643 176.706624 -19.575580 481.148851 -6.584130 179.870532 65.676838 -15.308230 -4.676733 39.013450 9.161084 -63.364532 124.170435 235.911975 163.873737 -25.916972 -60.955292 4.829304 -4.612394 -94.770364 3.647027 -47.980443 -65.074422 -41.139063 201.580438 -129.473831 254.084704 248.577659 5.025678 -15.634050 -12.995834 -83.314928 -11.875782 -35.101346
51.909765 38.445744 -125.100725 45.661488 -12.865308 21.234811 -90.948770 61.234128 189.863604 33.690181 -24.095929 -129.905253 -19.275508 -17.515153 -22.457483 6.949439 22.668457 -35.268457 41.480589 78.863823 9.502919 74.330866 -29.643656 82.553532 -94.763370 -103.603041 -153.078719 90.952807 331.436487 73.636106 191.570386 -20.176503 494.895017 6.061563 192.208681 71.746643 -25.008364 -4.741816 36.841303 -10.696665 -52.625836 125.413748 241.833858 180.365789 -40.686774 -61.722671 5.013796 -2.870883 -94.912234 -1.293284 -48.873927 -73.040226 -19.812075 186.620985 -126.234095 248.317292 251.175125 7.866763 -16.130231 -10.154336 -77.400414 -21.219989 -35.025401
53.813080 38.439199 -123.569468 44.687121 -19.878846 37.904835 -95.855865 77.947772 192.519796 38.609779 -23.384589 -122.879789 -17.915566 -3.060432 -22.967414 7.389291 15.516942 -39.445746 45.547810 75.763395 1.511487 74.671268 -28.438739 75.576958 -103.912408 -100.277634 -158.791503 105.804726 329.504827 92.016138 207.052800 -20.999335 507.274434 11.915998 210.307945 73.997812 -18.558485 7.246277 54.379839 -22.515876 -42.041187 123.681885 240.411211 197.252516 -51.136472 -62.103447 6.557036 -2.117761 -93.487565 -5.038588 -52.238591 -74.454868 3.550930 171.472924 -123.203758 235.233573 254.737670 11.278683 -15.642467 -7.741986 -69.652534 -30.374657 -33.294922
55.894388 38.967072 -122.180575 53.925494 -27.545545 57.971524 -87.057605 92.485249 186.521306 47.921843 -22.275982 -116.467170 -17.757522 5.042973 -22.993823 7.218309 18.785462 -44.575181 52.712053 76.472533 -0.703887 82.977482 -27.442752 67.621325 -98.883654 -92.555661 -159.340786 128.281772 326.265460 107.791990 218.590888 -22.219389 521.189934 8.970576 224.429443 79.923752 -22.356073 -1.863123 51.868474 -31.681426 -23.464741 123.341141 238.438407 207.226478 -59.858029 -60.507348 7.791772 -2.578764 -91.505752 -7.229639 -54.835170 -79.034871 28.126055 158.984797 -123.622176 212.995583 258.901216 13.815281 -13.134795 -6.255351 -62.947392 -39.847013 -31.321588
58.564762 40.447926 -120.753363 59.551996 -28.193313 73.582297 -83.188644 101.831953 178.140035 48.751049 -17.700889 -114.224887 -15.619411 9.024002 -22.834950 3.929566 7.256935 -56.734475 50.211852 76.103409 3.231622 79.262897 -27.211040 48.295612 -102.486504 -91.878796 -161.860211 153.191103 317.853126 121.685230 229.254179 -24.287632 524.432525 5.030528 239.888046 78.746282 -19.171233 -5.952674 58.894761 -38.884363 -12.185536 119.522450 237.500075 209.444186 -67.923561 -56.795028 9.754764 -4.778117 -87.902499 -8.088263 -57.103476 -87.092111 45.333137 141.916113 -127.062665 189.657797 261.861229 16.255174 -11.633342 -7.458632 -57.227112 -49.532030 -31.402932
